/* XPM */
static char * player_xpm[] = {
"25 25 60 1",
" 	c None",
".	c #030335",
"+	c #010117",
"@	c #000000",
"#	c #090958",
"$	c #13137F",
"%	c #12127E",
"&	c #07074A",
"*	c #020224",
"=	c #030332",
"-	c #01011E",
";	c #03032F",
">	c #2222C3",
",	c #131381",
"'	c #0E0E6A",
")	c #171792",
"!	c #0C0C64",
"~	c #01011D",
"{	c #020229",
"]	c #141487",
"^	c #1C1CA6",
"/	c #2828DC",
"(	c #1B1BA4",
"_	c #04043B",
":	c #010112",
"<	c #07074B",
"[	c #0B0B5D",
"}	c #1B1BA5",
"|	c #010113",
"1	c #020228",
"2	c #020225",
"3	c #030331",
"4	c #000001",
"5	c #2F2FFD",
"6	c #07074E",
"7	c #01011F",
"8	c #07074D",
"9	c #161690",
"0	c #2C2CEB",
"a	c #2F2FFC",
"b	c #0D0D67",
"c	c #030330",
"d	c #04043E",
"e	c #2C2CEE",
"f	c #2F2FFB",
"g	c #2A2AE4",
"h	c #1C1CA9",
"i	c #1E1EB0",
"j	c #2C2CEF",
"k	c #2D2DF4",
"l	c #2D2DF2",
"m	c #2F2FFA",
"n	c #2E2EF6",
"o	c #2828DE",
"p	c #2C2CED",
"q	c #2929E0",
"r	c #2727D8",
"s	c #2525CE",
"t	c #1E1EB4",
"u	c #2B2BE8",
"                         ",
"                         ",
"        .+@              ",
"      #$%&*=-            ",
"     ;%>>,')!~@          ",
"    @{%>>]^/(_@          ",
"    @:<%%[}/(_@@         ",
"    @@|{12!)!~@@         ",
"    @@@@@@~3~@@@         ",
"     @@@@@@@@@@@         ",
"      @@@@@@@@@4  555    ",
"        @@@@@@46 55555   ",
" 555     4@47890a55555   ",
"55555555 bcd)efa55555    ",
"55555555aghija555555     ",
" a555555aaklaa5555a      ",
"   a5555aafmaa555        ",
"      55angopm5          ",
"         qrst            ",
"        aaaalu           ",
"      5555aaaa5          ",
"     55555aaaa55         ",
"    55555anma5555        ",
"    555555 na55555       ",
"   5555a     55555       "};
