/* XPM */
static char * player_xpm[] = {
"64 64 221 2",
"  	c None",
". 	c #000000",
"+ 	c #000001",
"@ 	c #00000C",
"# 	c #000020",
"$ 	c #000017",
"% 	c #000036",
"& 	c #000046",
"* 	c #00004E",
"= 	c #00000D",
"- 	c #000039",
"; 	c #00005F",
"> 	c #000073",
", 	c #00007F",
"' 	c #000021",
") 	c #000025",
"! 	c #000050",
"~ 	c #00007D",
"{ 	c #00009A",
"] 	c #0000A8",
"^ 	c #000002",
"/ 	c #000018",
"( 	c #00003B",
"_ 	c #000053",
": 	c #00005A",
"< 	c #00002F",
"[ 	c #00005D",
"} 	c #00008F",
"| 	c #0000B1",
"1 	c #0000BF",
"2 	c #000010",
"3 	c #000043",
"4 	c #000072",
"5 	c #000086",
"6 	c #000093",
"7 	c #00000F",
"8 	c #00002D",
"9 	c #000068",
"0 	c #000097",
"a 	c #0000B0",
"b 	c #0000B9",
"c 	c #00002C",
"d 	c #000026",
"e 	c #000077",
"f 	c #0000AB",
"g 	c #0000C1",
"h 	c #0000C6",
"i 	c #000004",
"j 	c #00007E",
"k 	c #0000C4",
"l 	c #0000C7",
"m 	c #00003C",
"n 	c #000070",
"o 	c #0000A3",
"p 	c #0000BB",
"q 	c #0000C3",
"r 	c #000003",
"s 	c #00001C",
"t 	c #00005B",
"u 	c #000087",
"v 	c #00009F",
"w 	c #0000AA",
"x 	c #00002B",
"y 	c #000059",
"z 	c #00006A",
"A 	c #00001B",
"B 	c #00003A",
"C 	c #000007",
"D 	c #000019",
"E 	c #000049",
"F 	c #000057",
"G 	c #000008",
"H 	c #000032",
"I 	c #000060",
"J 	c #000080",
"K 	c #000090",
"L 	c #00008B",
"M 	c #0000AC",
"N 	c #000058",
"O 	c #000024",
"P 	c #0000C0",
"Q 	c #0000A7",
"R 	c #000075",
"S 	c #D52247",
"T 	c #0000B7",
"U 	c #0000C5",
"V 	c #0000B5",
"W 	c #000089",
"X 	c #020056",
"Y 	c #0300BC",
"Z 	c #0000C8",
"` 	c #0200C6",
" .	c #0500BB",
"..	c #140191",
"+.	c #3F0462",
"@.	c #790FA1",
"#.	c #3703B8",
"$.	c #1601C5",
"%.	c #0A00C7",
"&.	c #1B01C7",
"*.	c #3103C3",
"=.	c #4805B6",
"-.	c #640A8C",
";.	c #93145A",
">.	c #CB2044",
",.	c #D2224E",
"'.	c #B01B7C",
").	c #7B0FA5",
"!.	c #4C06BE",
"~.	c #3C03C1",
"{.	c #5808BC",
"].	c #770EAF",
"^.	c #91149A",
"/.	c #A81971",
"(.	c #C31F4F",
"_.	c #D32246",
":.	c #D42249",
"<.	c #CA205C",
"[.	c #AA1987",
"}.	c #8611A6",
"|.	c #790FAF",
"1.	c #9414A0",
"2.	c #B11B85",
"3.	c #C21E6B",
"4.	c #CB2053",
"5.	c #D22248",
"6.	c #D42247",
"7.	c #D2224C",
"8.	c #C41F6A",
"9.	c #A7198F",
"0.	c #A11795",
"a.	c #B91C7C",
"b.	c #CC205D",
"c.	c #D2224D",
"d.	c #D42248",
"e.	c #CE2158",
"f.	c #B81C7D",
"g.	c #B21B85",
"h.	c #C92063",
"i.	c #D3224B",
"j.	c #D3224A",
"k.	c #CC205C",
"l.	c #B61C7F",
"m.	c #B51B81",
"n.	c #CC205E",
"o.	c #CB205D",
"p.	c #BA1D78",
"q.	c #A31892",
"r.	c #A41892",
"s.	c #BF1D72",
"t.	c #CE2157",
"u.	c #D1224D",
"v.	c #D22249",
"w.	c #D32247",
"x.	c #C31F6C",
"y.	c #A7198B",
"z.	c #8F13A0",
"A.	c #7C10AD",
"B.	c #8411A9",
"C.	c #9E1697",
"D.	c #B31B7F",
"E.	c #BB1D66",
"F.	c #C11E51",
"G.	c #CD2145",
"H.	c #6C0CAF",
"I.	c #5A08B9",
"J.	c #5508BC",
"K.	c #5C09BA",
"L.	c #6B0CB4",
"M.	c #7B0FA6",
"N.	c #841183",
"O.	c #901457",
"P.	c #5107BA",
"Q.	c #630AB6",
"R.	c #6F0CB3",
"S.	c #710DB2",
"T.	c #6C0CB4",
"U.	c #5F09AF",
"V.	c #4C068B",
"W.	c #490557",
"X.	c #7F10A8",
"Y.	c #95159D",
"Z.	c #A8198E",
"`.	c #AB198B",
" +	c #A21893",
".+	c #8B139A",
"++	c #680B81",
"@+	c #440551",
"#+	c #AB1A87",
"$+	c #A91989",
"%+	c #BD1D75",
"&+	c #CA2060",
"*+	c #CC215B",
"=+	c #C71F65",
"-+	c #B91C73",
";+	c #9E176C",
">+	c #8C134E",
",+	c #D12151",
"'+	c #C9205F",
")+	c #C51F66",
"!+	c #D4224A",
"~+	c #D3224C",
"{+	c #CF2153",
"]+	c #C31F55",
"^+	c #B71C4B",
"/+	c #D32249",
"(+	c #D02150",
"_+	c #D12150",
":+	c #D12249",
"<+	c #CE2147",
"[+	c #D12146",
"}+	c #D02151",
"|+	c #D1224F",
"1+	c #CE2153",
"2+	c #C8205B",
"3+	c #CD2152",
"4+	c #C01E5E",
"5+	c #C31E59",
"6+	c #CF214C",
"7+	c #D1214D",
"8+	c #CE214B",
"                                                                                                                                ",
"                                                                                                                                ",
"                                                                                                                                ",
"                                                                                                                                ",
"                                                    . . . . . .                                                                 ",
"                                              . . . . . . . . . . . . .                                                         ",
"                                            . . . + + + . . . . . . . . . . .                                                   ",
"                                          . . + @ # # # @ + . . . . . . . . . .                                                 ",
"                                        . . + $ % & * & % $ + . . . + + + . . . .                                               ",
"                                      . . . = - ; > , > ; - = . + @ ' ' ' @ + . . .                                             ",
"                                    . . . + ) ! ~ { ] { ~ ! ) ^ / ( _ : _ ( / + . . .                                           ",
"                                    . . . ^ < [ } | 1 | } [ < 2 3 4 5 6 5 4 3 7 . . .                                           ",
"                                    . . . ^ < [ } | 1 | } [ < 8 9 0 a b a 0 9 c + . . .                                         ",
"                                    . . . + ) ! ~ { ] { ~ ! d 3 e f g h g f e 3 i . . .                                         ",
"                                    . . . . = - ; > , > ; - 2 3 j a k l k a j 3 i . . . .                                       ",
"                                    . . . . + $ % & * & % $ i m n o p q p o n m r . . . .                                       ",
"                                    . . . . . + @ # # # @ + . s t u v w v u t s . . . . .                                       ",
"                                      . . . . . . + + + . . . r x y z e z y x r . . . . .                                       ",
"                                      . . . . . . . . . . . . . r A B B B A r . . . . .                                         ",
"                                        . . . . . . . . . . . . . . r r r . . . . . . .                                         ",
"                                        . . . . . . . . . . . . . . . . . . . . . . . .                                         ",
"                                          . . . . . . . . . + + . . . . . . . . . . .                                           ",
"                                            . . . . . . C D ' ' D C . . . . . . . .                                             ",
"                                              . . . . 7 8 E F F E 8 7 . . . . . .                                               ",
"                                                . . G H I J K K J I H G . . .                                                   ",
"                                                    d t L f b b M L N O +                                                       ",
"                                                      5 ] 1 h h P Q R 3                                                         ",
"                        S S S S S S S                 ] T U l l U V W X         S S S S S                                       ",
"                        S S S S S S S S S               Y h l Z `  ...+.    S S S S S S S S                                     ",
"                      S S S S S S S S S S S S S       @.#.$.%.&.*.=.-.;.>.S S S S S S S S S                                     ",
"                      S S S S S S S S S S S S S S S ,.'.).!.~.{.].^./.(._.S S S S S S S S S                                     ",
"                        S S S S S S S S S S S S S S :.<.[.}.|.1.2.3.4.5.6.S S S S S S S S                                       ",
"                          S S S S S S S S S S S S 6.6.7.8.9.0.a.b.c.d.6.6.S S S S S S S                                         ",
"                                S S S S S S S S S 6.6.d.e.f.g.h.i.6.6.6.6.S S S S S S                                           ",
"                                      S S S S S S 6.6.j.k.l.m.n.:.6.6.6.6.S S S S                                               ",
"                                            S S S 6.,.o.p.q.r.s.t.u.v.w.6.S S                                                   ",
"                                                    x.y.z.A.B.C.D.E.F.G.6.                                                      ",
"                                                      H.I.J.K.L.M.N.O.                                                          ",
"                                                      P.Q.R.S.T.U.V.W.                                                          ",
"                                                      X.Y.Z.`. +.+++@+                                                          ",
"                                                    #+$+%+&+*+=+-+;+>+                                                          ",
"                                                S ,+'+)+t.!+:.~+{+]+^+                                                          ",
"                                              S S d./+(+_+:.d.6.d.:+<+[+                                                        ",
"                                            S S S 6.6.:.}+|+j.6.6.6.6.6.S                                                       ",
"                                          S S S S 6.6.d.1+2+1+j.6.6.6.6.S S S                                                   ",
"                                          S S S S S 6.d.3+4+5+6+6.6.6.S S S S S                                                 ",
"                                        S S S S S S S 6.7+    8+6.6.S S S S S S S                                               ",
"                                      S S S S S S S S S         S S S S S S S S S S                                             ",
"                                      S S S S S S S S             S S S S S S S S S S                                           ",
"                                    S S S S S S S S S               S S S S S S S S S S                                         ",
"                                    S S S S S S S S                     S S S S S S S S S                                       ",
"                                    S S S S S S S                       S S S S S S S S S                                       ",
"                                  S S S S S S S S                         S S S S S S S S S                                     ",
"                                  S S S S S S S                             S S S S S S S S                                     ",
"                                  S S S S S S                                 S S S S S S S S                                   ",
"                                  S S S S S S                                   S S S S S S S                                   ",
"                                  S S S S S                                       S S S S S S                                   ",
"                                    S S S                                             S S S                                     ",
"                                                                                                                                ",
"                                                                                                                                ",
"                                                                                                                                ",
"                                                                                                                                ",
"                                                                                                                                ",
"                                                                                                                                "};
